<?xml version="1.0" encoding="utf-8"?>
<!-- Generator: Adobe Illustrator 23.0.3, SVG Export Plug-In . SVG Version: 6.00 Build 0)  -->
<svg version="1.1" id="Layer_1" xmlns="http://www.w3.org/2000/svg" xmlns:xlink="http://www.w3.org/1999/xlink" x="0px" y="0px"
	 viewBox="0 0 1745 288" style="enable-background:new 0 0 1745 288;" xml:space="preserve">
<style type="text/css">
	.st0{fill:#FFFFFF;}
	.st1{fill:none;stroke:#FFFFFF;stroke-width:3;stroke-miterlimit:10;}
	.st2{fill:none;}
	.st3{fill:none;stroke:#000000;stroke-width:3;stroke-miterlimit:10;}
</style>
<g>
	<g>
		<path class="st0" d="M858.1,184.53c51.55-38.36,105.74-78.24,168.86-94.75c17.64-4.62,35.69-7.1,53.93-7.19
			c-0.76-2.8-1.51-5.59-2.27-8.39c-27.87,21.13-55.75,42.25-83.62,63.38c-7.1,5.38-14.2,10.76-21.3,16.14
			c-6.1,4.63-13.03,8.91-18.39,14.41c-4.23,4.35-7.27,10.36-4.61,16.36c2.14,4.81,6.97,7.05,12.01,7.45
			c6.58,0.53,13.06-1.79,19.27-3.62c7.66-2.26,15.28-4.65,22.86-7.16c15.45-5.13,30.72-10.8,45.77-17
			c29.74-12.24,58.51-26.53,86.41-42.52c30.7-17.59,61.2-36.38,95.57-45.95c-1.69-0.69-3.39-1.38-5.08-2.07
			c4.37,6.25-3.66,13.97-7.64,18.37c-4.74,5.26-9.64,10.37-14.68,15.34c-10.03,9.9-20.6,19.23-31.6,28.04
			c-22.21,17.78-46.2,33.28-70.95,47.26c-50.27,28.4-103.79,50.64-157.13,72.51c-33.98,13.93-69.5,27.27-106.85,25.05
			c0.4,2.95,0.8,5.89,1.2,8.84c69.66-28.69,141.07-53.1,213.74-72.96c20.54-5.61,41.19-10.85,61.91-15.75
			c5.63-1.33,3.25-10.01-2.39-8.68c-73.32,17.33-145.56,39.14-216.18,65.4c-19.96,7.42-39.79,15.2-59.48,23.32
			c-4.57,1.88-4.15,8.52,1.2,8.84c34.28,2.04,67.34-8.62,98.79-21.14c28.92-11.51,57.66-23.62,86.11-36.25
			c54.82-24.33,108.68-52.03,155.75-89.57c13.14-10.48,25.68-21.71,37.41-33.75c8.69-8.92,28.34-25.44,18.55-39.42
			c-1.15-1.65-3.05-2.63-5.08-2.07c-27.63,7.69-53.02,21.19-77.78,35.37c-25.71,14.72-51.33,29.34-78.25,41.77
			c-26.98,12.45-54.76,23.13-83.11,32.02c-6.81,2.13-13.67,4.44-20.62,6.1c-4.28,1.02-15.27,1.82-10.5-5.73
			c3.46-5.48,10.85-9.37,15.94-13.24c6.84-5.18,13.67-10.36,20.51-15.55c28.92-21.92,57.85-43.85,86.77-65.77
			c3.33-2.52,2.59-8.41-2.27-8.39c-66.78,0.32-127.19,32.74-180.89,69.63c-15.74,10.81-31.12,22.13-46.44,33.53
			C848.97,180.18,853.45,188,858.1,184.53L858.1,184.53z"/>
	</g>
</g>
<g>
	<g>
		<path class="st0" d="M1108.81,203.63c67.9-22.65,135.8-45.31,203.7-67.96c5.45-1.82,3.18-10.4-2.39-8.68
			c-35.09,10.8-70.19,21.61-105.28,32.41c-16.39,5.05-33.08,9.53-49.23,15.29c-11.77,4.2-22.86,10.33-27.61,22.51
			c-1.24,3.17,2.48,6.56,5.54,5.54c67.82-22.65,135.63-45.31,203.45-67.96c-1.16-2.74-2.31-5.48-3.47-8.22
			c-29.74,20.04-59.47,40.09-89.21,60.13c-4.87,3.29-0.7,10.13,4.54,7.77c48.62-21.86,97.24-43.72,145.86-65.58
			c-2.05-2.05-4.1-4.1-6.16-6.16c-12.17,25.83-34.1,46.27-60.99,56.06c-5.54,2.02-3.28,9.5,2.39,8.68
			c84.57-12.19,169.78-19.82,255.17-22.84c23.99-0.85,48-1.32,72.01-1.46c5.79-0.03,5.8-9.03,0-9
			c-86.17,0.47-172.31,5.56-257.93,15.34c-23.93,2.73-47.81,5.84-71.65,9.27c0.8,2.89,1.6,5.79,2.39,8.68
			c29.02-10.57,53.18-32.2,66.37-60.2c1.99-4.22-1.99-8.03-6.16-6.16c-48.62,21.86-97.24,43.72-145.86,65.58
			c1.51,2.59,3.03,5.18,4.54,7.77c29.74-20.04,59.47-40.09,89.21-60.13c4-2.7,1.64-9.93-3.47-8.22
			c-67.82,22.65-135.63,45.31-203.45,67.96c1.85,1.85,3.69,3.69,5.54,5.54c4.55-11.67,18.98-15.63,29.77-18.96
			c16.12-4.97,32.25-9.93,48.37-14.89c32.56-10.03,65.13-20.05,97.69-30.08c-0.8-2.89-1.6-5.79-2.39-8.68
			c-67.9,22.65-135.8,45.31-203.7,67.96C1100.95,196.77,1103.29,205.47,1108.81,203.63L1108.81,203.63z"/>
	</g>
</g>
<path class="st1" d="M229.5,192.5"/>
<path class="st1" d="M432.5,171.5"/>
<g>
	<path class="st2" d="M388.14-235.75"/>
</g>
<path class="st3" d="M148.5,186.5"/>
<path class="st1" d="M167.5,192.5"/>
<g>
	<g>
		<path class="st0" d="M252.91,86.95c-24.53-27.11-62.79-35.41-97.88-29.57c-40.98,6.82-76.24,32.32-108.07,57.5
			c-15.23,12.05-31.11,24.92-39.6,42.86c-6.94,14.67-8.08,32.75-0.49,47.43C15.8,222.44,35.17,226.5,53,223.36
			c18.87-3.32,35.47-13.84,50.35-25.41c18.74-14.57,35.96-30.91,55.14-44.95c20.31-14.87,41.77-28.1,64.14-39.63
			c5.17-2.67,0.63-10.3-4.54-7.77c-20.24,9.9-39.09,22.41-56.12,37.15c-8.32,7.2-16.78,14.86-23.55,23.57
			c-5.98,7.69-10.46,17.53-7.23,27.34c5.14,15.6,24.64,19.02,38.73,15.63c17.82-4.29,33.09-16,47.42-26.84
			c16.31-12.34,33.12-25.58,53.97-28.54c-1.46-2.51-2.92-5.01-4.38-7.52c-17.41,20.79-36.94,39.66-58.37,56.27
			c-4.04,3.13,1.19,9.8,5.45,7.07c28.24-18.09,57.07-35.24,86.46-51.41c-2.05-2.05-4.1-4.1-6.16-6.16
			c-7.98,17.97-18.36,34.71-31.18,49.63c-2.63,3.06-0.2,9.27,4.38,7.52c43.33-16.58,86.66-33.15,129.99-49.73
			c5.31-2.03,3.33-10.17-2.39-8.68c-29.94,7.82-55.12,28.96-69.16,56.4c-1.73,3.38,1.14,7.75,5.08,6.61
			c63.95-18.53,104.24-77.92,139.15-130.48c2.8-4.22-3.69-9.31-7.07-5.45c-34.65,39.5-66.51,81.39-95.38,125.29
			c-1.73,2.64,0.14,5.63,2.69,6.61c19.01,7.3,37.13-4.87,51.97-15.63c14.27-10.34,32.15-26.5,51.21-20.64
			c-0.66-2.51-1.32-5.01-1.99-7.52c-7.14,8.47-14.28,16.95-21.42,25.42c-2.49,2.95-0.91,7.55,3.18,7.68
			c32.98,1.06,65.04-12.43,88.11-35.89c2.92-2.97-0.01-9.28-4.38-7.52c-14.67,5.91-26.99,15.97-35.73,29.17
			c-3.98,6.01-9.41,14.74-9.33,22.19c0.07,6.71,5.58,10.64,11.83,10.96c7.61,0.38,15.36-3.32,22.32-5.91
			c8.68-3.23,17.24-6.82,25.63-10.74c17.26-8.06,33.76-17.63,49.43-28.46c4.81-3.32,0.71-10.19-4.54-7.77
			c-21.28,9.8-37,28.83-44.08,51c-1.11,3.47,2.35,6.19,5.54,5.54c29.45-6.09,56.14-22.15,75.86-44.76
			c-2.51-1.46-5.01-2.92-7.52-4.38c-2.63,10.07-5.27,20.15-7.9,30.22c-0.5,1.92,0.33,4.08,2.07,5.08
			c13.92,7.98,28.79,0.3,41.05-7.24c14.44-8.9,28.94-16.27,45.27-21.08c32.08-9.45,65.81-10.64,99.01-11.67c5.78-0.18,5.8-9.18,0-9
			c-31.77,0.99-63.98,2.19-94.91,10.2c-15.04,3.89-29.72,9.49-43.22,17.22c-11.69,6.69-28.5,21.92-42.65,13.81
			c0.69,1.69,1.38,3.39,2.07,5.08c2.63-10.07,5.27-20.15,7.9-30.22c1.08-4.13-4.46-7.89-7.52-4.38
			c-18.82,21.57-43.81,36.65-71.89,42.45c1.85,1.85,3.69,3.69,5.54,5.54c6.42-20.09,20.74-36.78,39.95-45.62
			c-1.51-2.59-3.03-5.18-4.54-7.77c-24.85,17.18-51.84,31.13-80.42,40.98c-2.58,0.89-14.15,5.98-15.26,0.94
			c-0.59-2.69,2.42-7.48,3.54-9.74c1.47-2.96,3.14-5.81,4.99-8.54c7.3-10.8,17.81-19.53,29.93-24.41c-1.46-2.51-2.92-5.01-4.38-7.52
			c-21.48,21.84-51.04,34.23-81.74,33.25c1.06,2.56,2.12,5.12,3.18,7.68c7.14-8.47,14.28-16.95,21.42-25.42
			c2.18-2.59,1.43-6.47-1.99-7.52c-19.59-6.02-37.49,6.5-52.58,17.48c-14.12,10.28-31.9,25.96-50.6,18.79
			c0.9,2.2,1.79,4.41,2.69,6.61c28.46-43.27,59.83-84.54,93.97-123.47c-2.36-1.82-4.71-3.64-7.07-5.45
			c-33.52,50.47-72.29,108.52-133.77,126.34c1.69,2.2,3.39,4.41,5.08,6.61c13.03-25.47,35.96-45,63.78-52.27
			c-0.8-2.89-1.6-5.79-2.39-8.68c-43.33,16.58-86.66,33.15-129.99,49.73c1.46,2.51,2.92,5.01,4.38,7.52
			c13.33-15.51,24.29-32.76,32.59-51.45c1.76-3.96-1.93-8.48-6.16-6.16c-29.39,16.17-58.22,33.32-86.46,51.41
			c1.82,2.36,3.64,4.71,5.45,7.07c21.44-16.62,40.96-35.48,58.37-56.27c3.04-3.63,0.09-8.16-4.38-7.52
			c-33.16,4.72-55.45,32.81-83.55,48.13c-11.7,6.38-29.89,13.39-41.73,3.28c-16.03-13.68,12.05-36.26,21.44-44.66
			c17.3-15.48,36.71-28.41,57.55-38.61c-1.51-2.59-3.03-5.18-4.54-7.77c-35.76,18.44-68.59,41.37-99.05,67.6
			c-13.62,11.73-27.27,23.8-43.17,32.4c-14.79,8-36.56,15.25-52.14,5.33c-13.21-8.41-15.14-27.2-11.37-41.09
			c4.69-17.26,18.63-30.34,31.97-41.36c29.45-24.31,61.77-48.68,99.02-59.24c35.69-10.12,77.4-4.43,103.2,24.08
			C250.44,97.62,256.79,91.24,252.91,86.95L252.91,86.95z"/>
	</g>
</g>
<g>
</g>
<g>
</g>
<g>
</g>
<g>
</g>
<g>
</g>
<g>
</g>
<g>
</g>
<g>
</g>
<g>
</g>
<g>
</g>
<g>
</g>
<g>
</g>
<g>
</g>
<g>
</g>
<g>
</g>
</svg>
